<?xml version="1.0" encoding="utf-8"?>
<!-- Generator: Adobe Illustrator 22.1.0, SVG Export Plug-In . SVG Version: 6.00 Build 0)  -->
<svg version="1.1" id="Capa_1" xmlns="http://www.w3.org/2000/svg" xmlns:xlink="http://www.w3.org/1999/xlink" x="0px" y="0px"
	 viewBox="0 0 26.2 20.3" style="enable-background:new 0 0 26.2 20.3;" xml:space="preserve">
<path d="M24.5,6.2c-1.5-2.8-4.4-4.8-7.8-4.8c-3.4,0-6.4,2-7.8,4.8c0,0,0,0,0,0c-0.6,1.2-0.9,2.5-0.9,4c0,1.4,0.3,2.8,0.9,4
	c0,0,0,0,0,0c1.5,2.8,4.4,4.8,7.8,4.8c3.4,0,6.4-1.9,7.8-4.8c0,0,0,0,0,0c0.6-1.2,0.9-2.5,0.9-4S25.1,7.4,24.5,6.2
	C24.5,6.2,24.5,6.2,24.5,6.2z M23.9,13.6h-3.4c0.2-0.9,0.3-2,0.3-3.1h3.8C24.7,11.6,24.4,12.7,23.9,13.6z M16.7,18.2
	c-1.2,0-2.3-1.5-2.9-3.8h5.8C19,16.6,17.9,18.2,16.7,18.2z M13.6,13.6c-0.2-0.9-0.3-2-0.3-3.1h6.9c0,1.1-0.1,2.1-0.3,3.1H13.6z
	 M8.7,10.5h3.8c0,1.1,0.1,2.1,0.3,3.1H9.5C9,12.7,8.8,11.6,8.7,10.5z M9.5,6.7h3.4c-0.2,0.9-0.3,2-0.3,3.1H8.7
	C8.8,8.7,9,7.7,9.5,6.7z M16.7,2.2c1.2,0,2.3,1.5,2.9,3.8h-5.8C14.4,3.7,15.5,2.2,16.7,2.2z M19.8,6.7c0.2,0.9,0.3,2,0.3,3.1h-6.9
	c0-1.1,0.1-2.1,0.3-3.1H19.8z M20.9,9.8c0-1.1-0.1-2.1-0.3-3.1h3.4c0.4,0.9,0.7,2,0.8,3.1H20.9z M23.5,6h-3.1
	c-0.4-1.5-1-2.7-1.7-3.6C20.7,2.9,22.4,4.2,23.5,6z M14.7,2.4C14,3.2,13.4,4.5,13,6H9.9C11,4.2,12.7,2.9,14.7,2.4z M9.9,14.4H13
	c0.4,1.5,1,2.7,1.7,3.6C12.7,17.4,11,16.1,9.9,14.4z M18.7,17.9c0.7-0.8,1.3-2,1.7-3.6h3.1C22.4,16.1,20.7,17.4,18.7,17.9z"/>
</svg>
